<?xml version="1.0" standalone="no"?><!DOCTYPE svg PUBLIC "-//W3C//DTD SVG 1.1//EN" "http://www.w3.org/Graphics/SVG/1.1/DTD/svg11.dtd"><svg t="1636206286713" class="icon" viewBox="0 0 1024 1024" version="1.1" xmlns="http://www.w3.org/2000/svg" p-id="2626" xmlns:xlink="http://www.w3.org/1999/xlink" width="200" height="200"><defs><style type="text/css"></style></defs><path d="M512 682.666667a42.666667 42.666667 0 0 1-42.666667-42.666667V341.333333a42.666667 42.666667 0 0 1 85.333334 0v298.666667a42.666667 42.666667 0 0 1-42.666667 42.666667z" p-id="2627" fill="#1296db"></path><path d="M512 768m-42.666667 0a42.666667 42.666667 0 1 0 85.333334 0 42.666667 42.666667 0 1 0-85.333334 0Z" p-id="2628" fill="#1296db"></path><path d="M810.666667 938.666667H213.333333a128 128 0 0 1-128-128V213.333333a128 128 0 0 1 128-128h597.333334a128 128 0 0 1 128 128v597.333334a128 128 0 0 1-128 128zM213.333333 170.666667a42.666667 42.666667 0 0 0-42.666666 42.666666v597.333334a42.666667 42.666667 0 0 0 42.666666 42.666666h597.333334a42.666667 42.666667 0 0 0 42.666666-42.666666V213.333333a42.666667 42.666667 0 0 0-42.666666-42.666666z" p-id="2629" fill="#1296db"></path></svg>