<?xml version="1.0" standalone="no"?><!DOCTYPE svg PUBLIC "-//W3C//DTD SVG 1.1//EN" "http://www.w3.org/Graphics/SVG/1.1/DTD/svg11.dtd"><svg t="1632907715635" class="icon" viewBox="0 0 1024 1024" version="1.1" xmlns="http://www.w3.org/2000/svg" p-id="11995" xmlns:xlink="http://www.w3.org/1999/xlink" width="200" height="200"><defs><style type="text/css"></style></defs><path d="M512 170.666667l-256 64-170.666667 192 85.333334 234.666666-42.666667 106.666667 170.666667 149.333333 192-64 106.666666 85.333334 192-64-42.666666-128 106.666666-128-42.666666-362.666667-298.666667-85.333333z" fill="#4352D4" opacity=".2" p-id="11996"></path><path d="M510.528 258.986667l222.037333 63.445333 31.744 269.781333-83.2 99.818667-30.421333 36.522667 14.933333 45.098666 15.68 47.04-67.008 22.336-70.4-56.341333-36.266666-28.992-44.032 14.677333-145.621334 48.533334-88.384-77.333334 20.224-50.56 12.096-30.250666-11.136-30.613334-67.946666-186.837333 119.338666-134.272 208.256-52.074667" fill="#4352D4" p-id="11997"></path></svg>