<?xml version="1.0" standalone="no"?><!DOCTYPE svg PUBLIC "-//W3C//DTD SVG 1.1//EN" "http://www.w3.org/Graphics/SVG/1.1/DTD/svg11.dtd"><svg t="1632907736743" class="icon" viewBox="0 0 1024 1024" version="1.1" xmlns="http://www.w3.org/2000/svg" p-id="12532" xmlns:xlink="http://www.w3.org/1999/xlink" width="200" height="200"><defs><style type="text/css"></style></defs><path d="M977.1 965.8H46.9c-24.8 0-44.8-20.1-44.8-44.8V103c0-24.8 20.1-44.8 44.8-44.8H977c24.8 0 44.8 20.1 44.8 44.8v818c0.1 24.8-20 44.8-44.7 44.8z" fill="#ECEFF1" p-id="12533"></path><path d="M2.1 166.9h1019.8v212.9H2.1z" fill="#2196F3" p-id="12534"></path><path d="M647.5 251H141.2c-12.4 0-22.4 10-22.4 22.4 0 12.4 10 22.4 22.4 22.4h506.3c12.4 0 22.4-10 22.4-22.4 0-12.4-10.1-22.4-22.4-22.4z" fill="#FFFFFF" p-id="12535"></path><path d="M882.8 251H757.5c-12.4 0-22.4 10-22.4 22.4 0 12.4 10 22.4 22.4 22.4h125.3c12.4 0 22.4-10 22.4-22.4 0-12.4-10-22.4-22.4-22.4z" fill="#81C784" p-id="12536"></path><path d="M81.6 116.5m-16.8 0a16.8 16.8 0 1 0 33.6 0 16.8 16.8 0 1 0-33.6 0Z" fill="#F44336" p-id="12537"></path><path d="M148.8 116.5m-16.8 0a16.8 16.8 0 1 0 33.6 0 16.8 16.8 0 1 0-33.6 0Z" fill="#FFC107" p-id="12538"></path><path d="M825.3 965.8L703.5 850.5H457V749.6h-44.9l-213.8 9 157 207.2z" fill="#DADEE0" p-id="12539"></path><path d="M972.6 965.8H480.7L119.9 489.7l213.8-9h44.8v100.9h268.9l11.2 11.2v89.6l240-2.6 123.2 162.6v71.8c0.3 8.9-0.4 17-2.9 22.8-9.6 23.5-30.3 29.7-46.3 28.8z" fill="#DADEE0" p-id="12540"></path><path d="M411.1 587.2h-22.4c-9.3 0-16.8-7.5-16.8-16.8V492c0-3.1-2.5-5.6-5.6-5.6h-33.6v-11.2h33.6c9.3 0 16.8 7.5 16.8 16.8v78.4c0 3.1 2.5 5.6 5.6 5.6h22.4v11.2zM691.3 688h-22.4c-9.3 0-16.8-7.5-16.8-16.8v-78.4c0-3.1-2.5-5.6-5.6-5.6h-33.6V576h33.6c9.3 0 16.8 7.5 16.8 16.8v78.4c0 3.1 2.5 5.6 5.6 5.6h22.4V688zM489.6 856.1h-22.4c-9.3 0-16.8-7.5-16.8-16.8v-78.4c0-3.1-2.5-5.6-5.6-5.6h-33.6V744h33.6c9.3 0 16.8 7.5 16.8 16.8v78.4c0 3.1 2.5 5.6 5.6 5.6h22.4v11.3z" fill="#B0BEC5" p-id="12541"></path><path d="M299.1 514.3H153.4c-18.6 0-33.6-15.1-33.6-33.6 0-18.6 15.1-33.6 33.6-33.6h145.7c18.6 0 33.6 15.1 33.6 33.6 0 18.6-15 33.6-33.6 33.6z" fill="#4CAF50" p-id="12542"></path><path d="M583.8 615.2H438.2c-18.6 0-33.6-15.1-33.6-33.6 0-18.6 15.1-33.6 33.6-33.6h145.7c18.6 0 33.6 15.1 33.6 33.6s-15.1 33.6-33.7 33.6z" fill="#2196F3" p-id="12543"></path><path d="M377.5 783.3H231.8c-18.6 0-33.6-15.1-33.6-33.6 0-18.6 15.1-33.6 33.6-33.6h145.7c18.6 0 33.6 15.1 33.6 33.6s-15 33.6-33.6 33.6z" fill="#F44336" p-id="12544"></path><path d="M870.6 716H724.9c-18.6 0-33.6-15.1-33.6-33.6 0-18.6 15.1-33.6 33.6-33.6h145.7c18.6 0 33.6 15.1 33.6 33.6 0 18.6-15 33.6-33.6 33.6zM668.9 884.1H523.2c-18.6 0-33.6-15.1-33.6-33.6 0-18.6 15.1-33.6 33.6-33.6h145.7c18.6 0 33.6 15.1 33.6 33.6 0 18.6-15 33.6-33.6 33.6z" fill="#FFC107" p-id="12545"></path></svg>